<svg id="Layer_1" data-name="Layer 1" xmlns="http://www.w3.org/2000/svg" viewBox="0 0 26 25"><defs><style>.cls-1{fill:#3a65f6;}</style></defs><path class="cls-1" d="M.9,10.12c-.91,0-1.14.7-.65,1.38l2.8,3.92a.78.78,0,0,0,1.37,0l2.8-3.93c.48-.66.26-1.37-.63-1.37H4.92A9.49,9.49,0,0,1,23.63,12.5a9.52,9.52,0,0,1-9.49,9.61,9.3,9.3,0,0,1-7.47-3.75A1.24,1.24,0,0,0,5,18.06a1.19,1.19,0,0,0-.12,1.77,11.86,11.86,0,0,0,9.31,4.67,12,12,0,0,0,0-24A12,12,0,0,0,2.5,10.12ZM13.71,5.78a1,1,0,0,0-1,1v6.29a1.29,1.29,0,0,0,.29.8l2.73,3.65a1,1,0,0,0,1.5.27,1,1,0,0,0,.15-1.45l-2.66-3.62V6.79A1,1,0,0,0,13.71,5.78Z"/></svg>