<svg id="Layer_1" data-name="Layer 1" xmlns="http://www.w3.org/2000/svg" viewBox="0 0 33 28"><defs><style>.cls-1{fill:#fff;}</style></defs><path class="cls-1" d="M0,13.21a1.28,1.28,0,0,0,1.39,1.26A1.71,1.71,0,0,0,2.5,14l1.56-1.26v12.2c0,1.94,1.2,3.08,3.25,3.08h18.3c2.05,0,3.25-1.14,3.25-3.08V12.64L30.51,14a1.73,1.73,0,0,0,1.11.49A1.25,1.25,0,0,0,33,13.25a1.31,1.31,0,0,0-.53-1.08L28.86,9.22V3.66a.92.92,0,0,0-1-1H26a.93.93,0,0,0-1,1V6.11L18.41.71a2.89,2.89,0,0,0-3.8,0L.53,12.17A1.37,1.37,0,0,0,0,13.21Zm20.39,3.63a1,1,0,0,0-1-1h-5.7a1,1,0,0,0-1.05,1v8.59H8a1.17,1.17,0,0,1-1.31-1.28V10.56l9.23-7.49a.81.81,0,0,1,1.15,0l9.12,7.41V24.15a1.17,1.17,0,0,1-1.31,1.28H20.39Z"/></svg>